<svg width="751" height="470" viewBox="0 0 751 470" fill="none" xmlns="http://www.w3.org/2000/svg">
<rect x="0.742188" width="750" height="470" fill="#ECECEC"/>
<path d="M311.516 366H308.293L304.004 358.992L299.68 366H296.68L302.363 357.117L297.043 348.867H300.16L304.121 355.348L308.082 348.867H311.105L305.75 357.164L311.516 366ZM318.641 360.738V358.395H324.664V360.738H318.641ZM346.648 366H343.426L339.137 358.992L334.812 366H331.812L337.496 357.117L332.176 348.867H335.293L339.254 355.348L343.215 348.867H346.238L340.883 357.164L346.648 366ZM346.695 353.039H349.695L352.332 360.387C352.73 361.434 352.996 362.418 353.129 363.34H353.223C353.293 362.91 353.422 362.391 353.609 361.781C353.797 361.164 354.789 358.25 356.586 353.039H359.562L354.02 367.723C353.012 370.418 351.332 371.766 348.98 371.766C348.371 371.766 347.777 371.699 347.199 371.566V369.387C347.613 369.48 348.086 369.527 348.617 369.527C349.945 369.527 350.879 368.758 351.418 367.219L351.898 366L346.695 353.039ZM373.965 370.582H371.398V366H362.516V370.582H359.973V363.867H361.027C361.949 362.547 362.68 360.953 363.219 359.086C363.766 357.211 364.09 355.195 364.191 353.039H372.066V363.867H373.965V370.582ZM369.359 363.867V355.148H366.57C366.422 356.758 366.109 358.344 365.633 359.906C365.164 361.469 364.59 362.789 363.91 363.867H369.359ZM387.863 359.496C387.863 361.613 387.32 363.266 386.234 364.453C385.148 365.641 383.637 366.234 381.699 366.234C380.488 366.234 379.418 365.961 378.488 365.414C377.559 364.867 376.844 364.082 376.344 363.059C375.844 362.035 375.594 360.848 375.594 359.496C375.594 357.395 376.133 355.754 377.211 354.574C378.289 353.395 379.809 352.805 381.77 352.805C383.645 352.805 385.129 353.41 386.223 354.621C387.316 355.824 387.863 357.449 387.863 359.496ZM378.43 359.496C378.43 362.488 379.535 363.984 381.746 363.984C383.934 363.984 385.027 362.488 385.027 359.496C385.027 356.535 383.926 355.055 381.723 355.055C380.566 355.055 379.727 355.438 379.203 356.203C378.688 356.969 378.43 358.066 378.43 359.496ZM397.426 359.332V353.039H399.992V359.332L404.984 353.039H407.891L402.793 359.309L408.348 366H405.312L399.992 359.426V366H397.426V359.426L392.117 366H389.094L394.637 359.309L389.551 353.039H392.457L397.426 359.332ZM413.105 353.039V358.242H419.211V353.039H421.965V366H419.211V360.41H413.105V366H410.352V353.039H413.105ZM428.551 353.039V359.684C428.551 360.457 428.488 361.594 428.363 363.094L434.867 353.039H438.23V366H435.582V359.473C435.582 359.113 435.602 358.531 435.641 357.727C435.688 356.922 435.727 356.336 435.758 355.969L429.277 366H425.914V353.039H428.551ZM450.195 353.039H453.219L447.863 359.285L453.676 366H450.512L444.91 359.426V366H442.156V353.039H444.91V359.332L450.195 353.039Z" fill="#666666"/>
<path d="M297.477 150.804C303.55 150.804 308.491 145.863 308.491 139.791C308.491 133.719 303.55 128.778 297.477 128.778C291.405 128.778 286.464 133.719 286.464 139.791C286.464 145.863 291.405 150.804 297.477 150.804V150.804ZM297.477 135.071C300.081 135.071 302.197 137.188 302.197 139.791C302.197 142.394 300.081 144.511 297.477 144.511C294.874 144.511 292.757 142.394 292.757 139.791C292.757 137.188 294.875 135.071 297.477 135.071Z" fill="#B6B6B6"/>
<path d="M440.651 193.284C440.651 199.357 445.592 204.298 451.664 204.298C457.736 204.298 462.678 199.357 462.678 193.284C462.678 187.212 457.736 182.271 451.664 182.271C445.592 182.271 440.651 187.212 440.651 193.284V193.284ZM451.664 188.564C454.267 188.564 456.384 190.681 456.384 193.284C456.384 195.887 454.267 198.004 451.664 198.004C449.061 198.004 446.944 195.887 446.944 193.284C446.944 190.681 449.062 188.564 451.664 188.564Z" fill="#B6B6B6"/>
<path d="M464.251 159.087C466.218 159.087 467.814 157.492 467.814 155.524C467.814 153.557 466.218 151.961 464.251 151.961C462.283 151.961 460.688 153.557 460.688 155.524C460.688 157.492 462.283 159.087 464.251 159.087Z" fill="#B6B6B6"/>
<path d="M313.211 171.674C315.179 171.674 316.774 170.079 316.774 168.111C316.774 166.143 315.179 164.548 313.211 164.548C311.243 164.548 309.648 166.143 309.648 168.111C309.648 170.079 311.243 171.674 313.211 171.674Z" fill="#B6B6B6"/>
<path d="M429.499 144.649C430.113 145.264 430.919 145.571 431.724 145.571C432.528 145.571 433.334 145.264 433.948 144.649L437.504 141.094L441.06 144.649C441.674 145.264 442.48 145.571 443.285 145.571C444.089 145.571 444.895 145.264 445.509 144.649C446.738 143.421 446.738 141.429 445.509 140.2L441.953 136.644L445.509 133.088C446.738 131.86 446.738 129.868 445.509 128.639C444.28 127.41 442.289 127.41 441.06 128.639L437.504 132.195L433.948 128.639C432.72 127.41 430.728 127.41 429.499 128.639C428.27 129.868 428.27 131.86 429.499 133.088L433.055 136.644L429.499 140.2C428.27 141.429 428.27 143.42 429.499 144.649V144.649Z" fill="#B6B6B6"/>
<path d="M284.752 210.729C285.367 211.344 286.172 211.651 286.977 211.651C287.782 211.651 288.587 211.344 289.202 210.729L292.758 207.174L296.313 210.729C296.928 211.344 297.733 211.651 298.538 211.651C299.343 211.651 300.148 211.344 300.763 210.729C301.991 209.501 301.991 207.509 300.763 206.28L297.207 202.724L300.763 199.169C301.991 197.94 301.991 195.948 300.763 194.719C299.534 193.49 297.542 193.49 296.313 194.719L292.758 198.275L289.202 194.719C287.973 193.49 285.981 193.49 284.752 194.719C283.524 195.948 283.524 197.94 284.752 199.169L288.308 202.724L284.752 206.28C283.524 207.509 283.524 209.5 284.752 210.729V210.729Z" fill="#B6B6B6"/>
<path d="M391.878 212.164C393.615 212.164 395.024 210.755 395.024 209.018C395.024 207.28 393.615 205.871 391.878 205.871C390.14 205.871 388.731 207.28 388.731 209.018C388.731 210.755 390.14 212.164 391.878 212.164Z" fill="#B6B6B6"/>
<path d="M360.411 212.164C362.149 212.164 363.557 210.755 363.557 209.018C363.557 207.28 362.149 205.871 360.411 205.871C358.673 205.871 357.264 207.28 357.264 209.018C357.264 210.755 358.673 212.164 360.411 212.164Z" fill="#B6B6B6"/>
<path d="M462.991 259.994C459 256.998 458.665 252.158 458.278 246.556C457.672 237.823 456.919 226.957 439.468 224.775C430.575 223.672 421.759 226.521 414.63 232.811C408.705 238.044 404.521 245.181 402.571 252.901L390.305 247.327V244.789C390.305 244.76 390.289 244.735 390.288 244.706C402.331 238.952 411.488 228.23 415.202 215.305C417.295 215.36 419.221 214.797 421.123 213.612C424.043 211.79 426.019 208.827 426.406 205.681C426.796 202.528 425.819 199.366 423.733 197.003C422.298 195.383 420.436 194.237 418.389 193.675C418.383 193.122 418.361 191.111 418.354 190.902C418.511 190.525 418.626 176.877 418.626 176.877C419.354 176.79 420.064 176.658 420.734 176.426C423.094 175.612 424.895 173.94 426.081 171.46H426.084C430.178 162.906 422.863 150.788 408.965 141.458C409.939 138.992 410.041 136.304 409.153 133.783C408.172 131.009 406.175 128.781 403.523 127.511C400.871 126.236 397.884 126.076 395.104 127.053C392.58 127.944 390.548 129.708 389.239 132.01C373.259 127.03 359.231 128.925 355.131 137.48C354.209 139.407 354.01 141.421 354.457 143.371C340.99 149.528 333.611 161.169 333.667 176.361L333.707 181.557C333.738 184.498 333.816 190.007 333.874 190.253C333.873 190.299 333.906 192.9 333.906 193.668C332.014 194.181 330.289 195.198 328.888 196.649C326.796 198.822 325.702 201.68 325.809 204.696C325.926 208.064 327.837 211.315 330.916 213.393C332.862 214.705 334.813 215.347 336.933 215.313C340.224 227.337 348.206 237.428 358.855 243.555C358.854 243.581 358.84 243.603 358.84 243.63V247.327L333.762 258.724C322.235 263.963 314.786 275.671 314.786 288.546V314.429C314.786 316.169 316.194 317.576 317.933 317.576H431.213C432.952 317.576 434.36 316.169 434.36 314.429V299.941C435.91 300.136 437.478 300.269 439.08 300.269C452.979 300.269 467.716 291.275 471.266 280.63C472.701 276.318 473.537 267.904 462.991 259.994V259.994ZM397.194 132.991C398.386 132.573 399.665 132.646 400.798 133.184C402.691 134.093 403.681 136.101 403.416 138.074C402.129 137.366 400.809 136.676 399.44 136.02C398.084 135.371 396.732 134.779 395.384 134.224C395.893 133.69 396.479 133.242 397.194 132.991V132.991ZM360.804 140.197C362.221 137.244 366.643 135.526 372.844 135.526C379.325 135.526 387.751 137.4 396.723 141.696C414.282 150.11 423.295 162.703 420.404 168.744C419.826 169.952 419.177 170.305 418.677 170.48C415.014 171.734 406.327 167.435 397.108 162.887C394.843 161.769 392.468 160.595 389.985 159.406C387.548 158.238 385.133 157.116 382.791 156.028C372.629 151.305 362.125 146.419 360.635 142.268C360.39 141.582 360.438 140.961 360.804 140.197V140.197ZM357.655 148.82C362.069 153.327 370.308 157.166 380.136 161.735C382.459 162.813 384.853 163.926 387.268 165.085C389.726 166.261 392.08 167.423 394.323 168.529C401.465 172.057 407.396 174.978 412.331 176.267V188.165C402.915 195.245 392.268 197.928 382.204 195.728C373.182 193.758 365.7 188.04 361.68 180.041C361.222 179.131 360.352 178.498 359.347 178.345C358.336 178.182 357.319 178.529 356.612 179.26C352.553 183.439 346.625 185.95 340.034 186.362C340.031 184.843 340.013 183.19 339.997 181.497L339.957 176.337C339.898 160.121 349.36 152.443 357.655 148.82ZM342.388 211.089C342.207 210.207 341.657 209.445 340.876 208.993C340.096 208.545 339.158 208.458 338.302 208.738C337.085 209.153 335.96 209.209 334.436 208.176C333.041 207.236 332.144 205.816 332.094 204.473C332.048 203.177 332.518 201.95 333.416 201.019C334.313 200.09 335.518 199.578 336.811 199.578C337.662 199.578 338.51 199.215 339.103 198.607C339.977 197.708 340.247 196.937 340.193 192.643C346.924 192.265 353.17 190.07 358.063 186.352C363.211 194.222 371.326 199.796 380.861 201.876C383.614 202.479 386.395 202.777 389.182 202.777C397.009 202.775 404.857 200.392 412.163 195.855C412.283 197.293 412.57 197.981 413.206 198.625C413.796 199.224 414.635 199.578 415.477 199.578C416.83 199.578 418.12 200.158 419.014 201.172C419.924 202.199 420.33 203.526 420.161 204.912C420.001 206.19 419.116 207.444 417.794 208.271C416.466 209.098 415.342 209.224 413.919 208.723C413.071 208.412 412.128 208.501 411.341 208.937C410.551 209.377 409.989 210.135 409.795 211.018C406.731 225.086 396.333 236.578 382.655 241.01L381.266 241.464C377.354 242.733 373.356 242.78 369.712 241.603C355.799 237.126 345.329 225.433 342.388 211.089V211.089ZM367.783 247.595C370.167 248.363 372.647 248.744 375.164 248.744C377.835 248.744 380.542 248.314 383.209 247.45L384.012 247.188V248.351C384.012 253.556 379.777 257.791 374.572 257.791C369.366 257.791 365.132 253.556 365.132 248.351V246.552C366.016 246.898 366.871 247.301 367.783 247.595V247.595ZM428.064 311.284H409.184V295.551C409.184 293.812 407.777 292.404 406.037 292.404C404.298 292.404 402.891 293.812 402.891 295.551V311.284H343.104V295.551C343.104 293.812 341.697 292.404 339.957 292.404C338.218 292.404 336.811 293.812 336.811 295.551V311.284H321.077V288.548C321.077 278.134 327.079 268.675 336.366 264.453L359.86 253.776C362.081 259.774 367.81 264.084 374.571 264.084C381.332 264.084 387.061 259.774 389.281 253.775L401.492 259.323C401.404 260.384 401.317 261.445 401.317 262.511C401.317 279.502 412.6 293.897 428.064 298.623V311.284ZM465.292 278.641C462.616 286.667 450.122 293.978 439.077 293.978C421.728 293.978 407.611 279.861 407.611 262.511C407.611 253.05 411.793 243.711 418.796 237.531C423.75 233.158 429.671 230.835 435.731 230.835C436.714 230.835 437.701 230.896 438.687 231.019C451 232.559 451.419 238.612 451.999 246.989C452.43 253.231 452.918 260.304 459.218 265.027C464.85 269.253 466.894 273.835 465.292 278.641V278.641Z" fill="#B6B6B6"/>
<path d="M451.664 265.787C446.53 265.787 442.353 269.963 442.353 275.098C442.353 280.229 446.53 284.405 451.664 284.405C456.799 284.405 460.975 280.229 460.975 275.098C460.975 269.963 456.8 265.787 451.664 265.787V265.787ZM451.664 278.112C450.002 278.112 448.647 276.76 448.647 275.098C448.647 273.435 450.002 272.08 451.664 272.08C453.326 272.08 454.682 273.435 454.682 275.098C454.682 276.76 453.326 278.112 451.664 278.112Z" fill="#B6B6B6"/>
<path d="M432.784 235.396C428.243 235.396 424.549 239.089 424.549 243.631C424.549 248.173 428.242 251.867 432.784 251.867C437.326 251.867 441.02 248.173 441.02 243.631C441.02 239.089 437.326 235.396 432.784 235.396ZM432.784 245.573C431.715 245.573 430.842 244.701 430.842 243.631C430.842 242.561 431.714 241.689 432.784 241.689C433.854 241.689 434.726 242.561 434.726 243.631C434.726 244.701 433.854 245.573 432.784 245.573Z" fill="#B6B6B6"/>
<path d="M426.86 260.938C426.86 256.396 423.166 252.702 418.624 252.702C414.082 252.702 410.389 256.395 410.389 260.938C410.389 265.48 414.082 269.173 418.624 269.173C423.166 269.173 426.86 265.48 426.86 260.938ZM418.624 262.88C417.555 262.88 416.682 262.007 416.682 260.938C416.682 259.868 417.554 258.995 418.624 258.995C419.694 258.995 420.567 259.868 420.567 260.938C420.567 262.007 419.694 262.88 418.624 262.88Z" fill="#B6B6B6"/>
<path d="M429.637 273.155C425.096 273.155 421.402 276.849 421.402 281.391C421.402 285.933 425.095 289.626 429.637 289.626C434.18 289.626 437.873 285.933 437.873 281.391C437.873 276.849 434.18 273.155 429.637 273.155ZM429.637 283.333C428.568 283.333 427.695 282.461 427.695 281.391C427.695 280.321 428.568 279.449 429.637 279.449C430.707 279.449 431.58 280.321 431.58 281.391C431.58 282.461 430.707 283.333 429.637 283.333Z" fill="#B6B6B6"/>
<path d="M306.045 240.131C305.461 239.554 304.868 238.967 304.291 238.361C304.29 238.36 304.289 238.36 304.289 238.359C304.289 238.359 304.289 238.359 304.289 238.358C301.877 235.835 300.269 233.536 300.269 230.528C300.269 226.53 298.195 225.433 296.957 225.136C292.05 223.894 286.303 233.525 283.316 239.348C281.522 242.847 279.38 247.746 279.38 251.209C279.38 257.315 282.747 262.599 287.687 265.459L285.866 305.882C285.718 309.148 286.862 312.308 289.004 314.545C290.872 316.502 293.324 317.578 295.905 317.578C298.486 317.578 300.938 316.502 302.806 314.545C304.949 312.308 306.092 309.149 305.944 305.882L304.123 265.459C309.063 262.598 312.431 257.314 312.431 251.209C312.431 246.455 309.038 243.094 306.045 240.131V240.131ZM294.307 233.622C294.89 236.256 296.172 238.447 297.656 240.333C296.544 241.16 295.446 241.596 294.374 241.639C292.93 241.633 291.363 240.966 290.084 240.041C291.608 237.334 293.105 235.15 294.307 233.622ZM299.657 306.165C299.727 307.722 299.217 309.195 298.259 310.196C297.785 310.694 296.99 311.284 295.905 311.284C294.82 311.284 294.024 310.694 293.551 310.196C292.592 309.195 292.083 307.722 292.153 306.165L293.893 267.531C294.56 267.613 295.216 267.735 295.905 267.735C296.594 267.735 297.25 267.614 297.917 267.531L299.657 306.165ZM295.904 261.442C290.262 261.442 285.671 256.851 285.671 251.209C285.671 250.317 286.139 248.42 287.292 245.686C289.557 247.136 291.862 247.936 294.189 247.936C294.331 247.936 294.472 247.932 294.616 247.926C297.194 247.827 299.651 246.815 301.958 244.941C304.233 247.2 306.137 249.181 306.137 251.208C306.137 256.851 301.546 261.442 295.904 261.442Z" fill="#B6B6B6"/>
</svg>
