<svg width="464" height="274" viewBox="0 0 464 274" fill="none" xmlns="http://www.w3.org/2000/svg">
<rect x="0.381836" width="437" height="274" fill="#ECECEC"/>
<path d="M155.155 237H151.933L147.644 229.992L143.319 237H140.319L146.003 228.117L140.683 219.867H143.8L147.761 226.348L151.722 219.867H154.745L149.39 228.164L155.155 237ZM162.28 231.738V229.395H168.304V231.738H162.28ZM190.288 237H187.065L182.776 229.992L178.452 237H175.452L181.136 228.117L175.815 219.867H178.933L182.894 226.348L186.854 219.867H189.878L184.522 228.164L190.288 237ZM190.335 224.039H193.335L195.972 231.387C196.37 232.434 196.636 233.418 196.769 234.34H196.862C196.933 233.91 197.062 233.391 197.249 232.781C197.437 232.164 198.429 229.25 200.226 224.039H203.202L197.659 238.723C196.651 241.418 194.972 242.766 192.62 242.766C192.011 242.766 191.417 242.699 190.839 242.566V240.387C191.253 240.48 191.726 240.527 192.257 240.527C193.585 240.527 194.519 239.758 195.058 238.219L195.538 237L190.335 224.039ZM217.604 241.582H215.038V237H206.155V241.582H203.612V234.867H204.667C205.589 233.547 206.319 231.953 206.858 230.086C207.405 228.211 207.729 226.195 207.831 224.039H215.706V234.867H217.604V241.582ZM212.999 234.867V226.148H210.21C210.062 227.758 209.749 229.344 209.272 230.906C208.804 232.469 208.229 233.789 207.55 234.867H212.999ZM231.503 230.496C231.503 232.613 230.96 234.266 229.874 235.453C228.788 236.641 227.276 237.234 225.339 237.234C224.128 237.234 223.058 236.961 222.128 236.414C221.198 235.867 220.483 235.082 219.983 234.059C219.483 233.035 219.233 231.848 219.233 230.496C219.233 228.395 219.772 226.754 220.851 225.574C221.929 224.395 223.448 223.805 225.409 223.805C227.284 223.805 228.769 224.41 229.862 225.621C230.956 226.824 231.503 228.449 231.503 230.496ZM222.069 230.496C222.069 233.488 223.175 234.984 225.386 234.984C227.573 234.984 228.667 233.488 228.667 230.496C228.667 227.535 227.565 226.055 225.362 226.055C224.206 226.055 223.366 226.438 222.843 227.203C222.327 227.969 222.069 229.066 222.069 230.496ZM241.065 230.332V224.039H243.632V230.332L248.624 224.039H251.53L246.433 230.309L251.987 237H248.952L243.632 230.426V237H241.065V230.426L235.757 237H232.733L238.276 230.309L233.19 224.039H236.097L241.065 230.332ZM256.745 224.039V229.242H262.851V224.039H265.604V237H262.851V231.41H256.745V237H253.991V224.039H256.745ZM272.19 224.039V230.684C272.19 231.457 272.128 232.594 272.003 234.094L278.507 224.039H281.87V237H279.222V230.473C279.222 230.113 279.241 229.531 279.28 228.727C279.327 227.922 279.366 227.336 279.397 226.969L272.917 237H269.554V224.039H272.19ZM293.835 224.039H296.858L291.503 230.285L297.315 237H294.151L288.55 230.426V237H285.796V224.039H288.55V230.332L293.835 224.039Z" fill="#666666"/>
<path d="M163.005 69.7151C167.379 69.7151 170.938 66.1558 170.938 61.7817C170.938 57.4076 167.379 53.8484 163.005 53.8484C158.631 53.8484 155.071 57.4076 155.071 61.7817C155.071 66.1558 158.631 69.7151 163.005 69.7151ZM163.005 58.3817C164.88 58.3817 166.405 59.9066 166.405 61.7817C166.405 63.6568 164.88 65.1817 163.005 65.1817C161.13 65.1817 159.605 63.6568 159.605 61.7817C159.605 59.9066 161.13 58.3817 163.005 58.3817Z" fill="#B6B6B6"/>
<path d="M266.138 100.315C266.138 104.689 269.697 108.248 274.072 108.248C278.446 108.248 282.005 104.689 282.005 100.315C282.005 95.9408 278.446 92.3816 274.072 92.3816C269.697 92.3816 266.138 95.9408 266.138 100.315ZM274.072 96.9149C275.947 96.9149 277.472 98.4398 277.472 100.315C277.472 102.19 275.947 103.715 274.072 103.715C272.196 103.715 270.672 102.19 270.672 100.315C270.672 98.4398 272.197 96.9149 274.072 96.9149Z" fill="#B6B6B6"/>
<path d="M283.138 75.6814C284.556 75.6814 285.705 74.5324 285.705 73.115C285.705 71.6976 284.556 70.5486 283.138 70.5486C281.721 70.5486 280.572 71.6976 280.572 73.115C280.572 74.5324 281.721 75.6814 283.138 75.6814Z" fill="#B6B6B6"/>
<path d="M174.338 84.7481C175.755 84.7481 176.904 83.5991 176.904 82.1817C176.904 80.7643 175.755 79.6152 174.338 79.6152C172.921 79.6152 171.771 80.7643 171.771 82.1817C171.771 83.5991 172.921 84.7481 174.338 84.7481Z" fill="#B6B6B6"/>
<path d="M258.105 65.2814C258.547 65.7239 259.128 65.9455 259.707 65.9455C260.287 65.9455 260.867 65.7239 261.31 65.2814L263.871 62.72L266.433 65.2814C266.875 65.7239 267.455 65.9455 268.035 65.9455C268.615 65.9455 269.195 65.7239 269.638 65.2814C270.523 64.3962 270.523 62.9614 269.638 62.0763L267.076 59.515L269.638 56.9536C270.523 56.0685 270.523 54.6337 269.638 53.7486C268.752 52.8634 267.318 52.8634 266.433 53.7486L263.871 56.3099L261.31 53.7486C260.425 52.8634 258.99 52.8634 258.105 53.7486C257.22 54.6337 257.22 56.0685 258.105 56.9536L260.666 59.515L258.105 62.0763C257.22 62.9614 257.22 64.3957 258.105 65.2814Z" fill="#B6B6B6"/>
<path d="M153.838 112.881C154.281 113.324 154.861 113.545 155.441 113.545C156.02 113.545 156.601 113.324 157.043 112.881L159.605 110.32L162.166 112.881C162.608 113.324 163.189 113.545 163.768 113.545C164.348 113.545 164.928 113.324 165.371 112.881C166.256 111.996 166.256 110.561 165.371 109.676L162.81 107.115L165.371 104.553C166.256 103.668 166.256 102.234 165.371 101.348C164.486 100.463 163.051 100.463 162.166 101.348L159.605 103.91L157.043 101.348C156.158 100.463 154.723 100.463 153.838 101.348C152.953 102.234 152.953 103.668 153.838 104.553L156.4 107.115L153.838 109.676C152.953 110.561 152.953 111.996 153.838 112.881Z" fill="#B6B6B6"/>
<path d="M231.004 113.915C232.256 113.915 233.271 112.9 233.271 111.648C233.271 110.396 232.256 109.382 231.004 109.382C229.753 109.382 228.738 110.396 228.738 111.648C228.738 112.9 229.753 113.915 231.004 113.915Z" fill="#B6B6B6"/>
<path d="M208.338 113.915C209.59 113.915 210.605 112.9 210.605 111.648C210.605 110.396 209.59 109.382 208.338 109.382C207.086 109.382 206.071 110.396 206.071 111.648C206.071 112.9 207.086 113.915 208.338 113.915Z" fill="#B6B6B6"/>
<path d="M282.231 148.369C279.356 146.211 279.114 142.724 278.835 138.689C278.399 132.398 277.857 124.571 265.286 122.999C258.88 122.205 252.53 124.257 247.394 128.788C243.126 132.557 240.112 137.699 238.708 143.259L229.872 139.245V137.416C229.872 137.395 229.861 137.377 229.86 137.356C238.535 133.211 245.131 125.488 247.806 116.177C249.314 116.217 250.702 115.812 252.072 114.958C254.175 113.645 255.598 111.511 255.877 109.245C256.158 106.973 255.454 104.696 253.951 102.994C252.918 101.827 251.576 101.001 250.102 100.597C250.097 100.198 250.082 98.75 250.077 98.5992C250.19 98.3272 250.273 88.4961 250.273 88.4961C250.797 88.4338 251.308 88.3386 251.791 88.1714C253.491 87.5849 254.788 86.3808 255.643 84.5946H255.645C258.594 78.4327 253.325 69.7032 243.314 62.9825C244.015 61.2066 244.089 59.2697 243.449 57.4541C242.743 55.4555 241.304 53.8507 239.394 52.9361C237.483 52.0175 235.332 51.9025 233.329 52.6063C231.511 53.2483 230.047 54.5188 229.104 56.1769C217.593 52.5893 207.488 53.955 204.535 60.1169C203.871 61.5052 203.727 62.9559 204.05 64.3607C194.349 68.796 189.033 77.1815 189.074 88.125L189.103 91.8678C189.125 93.986 189.181 97.9544 189.223 98.1317C189.222 98.1646 189.246 100.038 189.246 100.592C187.883 100.961 186.64 101.694 185.631 102.739C184.124 104.304 183.336 106.363 183.413 108.536C183.497 110.962 184.874 113.304 187.092 114.8C188.493 115.745 189.899 116.208 191.426 116.183C193.797 124.845 199.546 132.114 207.217 136.527C207.217 136.546 207.206 136.562 207.206 136.581V139.244L189.142 147.454C180.839 151.228 175.473 159.662 175.473 168.936V187.581C175.473 188.834 176.487 189.847 177.74 189.847H259.34C260.593 189.847 261.606 188.834 261.606 187.581V177.144C262.723 177.285 263.853 177.381 265.006 177.381C275.018 177.381 285.634 170.901 288.191 163.234C289.225 160.127 289.828 154.067 282.231 148.369ZM234.834 56.8835C235.693 56.5826 236.614 56.6353 237.431 57.0229C238.794 57.6774 239.508 59.1241 239.317 60.5453C238.389 60.0347 237.438 59.5378 236.452 59.0657C235.476 58.5982 234.502 58.1715 233.531 57.772C233.897 57.3873 234.32 57.0643 234.834 56.8835ZM208.621 62.0742C209.642 59.9469 212.827 58.7093 217.294 58.7093C221.962 58.7093 228.032 60.0597 234.495 63.1542C247.143 69.2147 253.636 78.2859 251.553 82.6379C251.137 83.5078 250.67 83.7622 250.309 83.8886C247.671 84.7918 241.413 81.695 234.773 78.4191C233.141 77.6133 231.43 76.7678 229.641 75.911C227.886 75.0701 226.146 74.262 224.459 73.4783C217.139 70.0761 209.573 66.5565 208.5 63.5662C208.323 63.0721 208.358 62.625 208.621 62.0742ZM206.353 68.286C209.533 71.5324 215.467 74.2977 222.547 77.5889C224.22 78.3658 225.944 79.1671 227.684 80.0018C229.455 80.8495 231.15 81.6865 232.767 82.4832C237.911 85.0242 242.183 87.1282 245.738 88.057V96.6278C238.956 101.728 231.286 103.66 224.036 102.075C217.537 100.656 212.148 96.5371 209.252 90.7753C208.922 90.1202 208.296 89.664 207.572 89.5535C206.844 89.4362 206.111 89.6861 205.602 90.2131C202.678 93.2233 198.408 95.0321 193.66 95.3284C193.657 94.2348 193.644 93.0442 193.633 91.8242L193.604 88.1074C193.562 76.4261 200.378 70.8955 206.353 68.286ZM195.356 113.14C195.225 112.505 194.829 111.956 194.267 111.631C193.705 111.308 193.029 111.246 192.412 111.447C191.535 111.746 190.725 111.786 189.627 111.042C188.623 110.365 187.976 109.342 187.94 108.375C187.907 107.441 188.246 106.557 188.892 105.887C189.539 105.218 190.407 104.848 191.338 104.848C191.951 104.848 192.562 104.587 192.989 104.149C193.619 103.502 193.813 102.947 193.774 99.8533C198.623 99.5813 203.122 97.9997 206.647 95.3216C210.355 100.991 216.201 105.006 223.069 106.504C225.053 106.938 227.056 107.153 229.063 107.153C234.701 107.151 240.355 105.435 245.617 102.167C245.704 103.203 245.91 103.699 246.369 104.162C246.794 104.594 247.398 104.848 248.005 104.848C248.979 104.848 249.908 105.267 250.553 105.997C251.208 106.737 251.5 107.693 251.378 108.691C251.263 109.612 250.626 110.515 249.674 111.111C248.717 111.706 247.907 111.797 246.882 111.436C246.271 111.212 245.592 111.277 245.025 111.591C244.456 111.907 244.051 112.454 243.912 113.089C241.705 123.223 234.214 131.502 224.362 134.694L223.361 135.021C220.543 135.935 217.663 135.969 215.038 135.121C205.016 131.896 197.474 123.473 195.356 113.14ZM213.648 139.437C215.366 139.991 217.153 140.265 218.965 140.265C220.889 140.265 222.839 139.955 224.761 139.333L225.339 139.144V139.982C225.339 143.731 222.288 146.782 218.539 146.782C214.789 146.782 211.739 143.731 211.739 139.982V138.686C212.376 138.935 212.992 139.226 213.648 139.437ZM257.071 185.315H243.471V173.982C243.471 172.729 242.458 171.715 241.205 171.715C239.952 171.715 238.938 172.729 238.938 173.982V185.315H195.871V173.982C195.871 172.729 194.858 171.715 193.605 171.715C192.352 171.715 191.338 172.729 191.338 173.982V185.315H180.005V168.937C180.005 161.436 184.328 154.622 191.017 151.581L207.941 143.889C209.541 148.21 213.668 151.315 218.538 151.315C223.409 151.315 227.535 148.21 229.135 143.889L237.931 147.886C237.867 148.649 237.805 149.414 237.805 150.182C237.805 162.421 245.932 172.791 257.071 176.195V185.315ZM283.888 161.801C281.961 167.582 272.96 172.848 265.005 172.848C252.507 172.848 242.338 162.68 242.338 150.182C242.338 143.366 245.351 136.64 250.396 132.188C253.964 129.038 258.229 127.364 262.594 127.364C263.303 127.364 264.013 127.409 264.724 127.497C273.593 128.606 273.895 132.966 274.313 139.001C274.623 143.497 274.975 148.592 279.513 151.995C283.57 155.038 285.042 158.339 283.888 161.801Z" fill="#B6B6B6"/>
<path d="M274.071 152.541C270.373 152.541 267.364 155.55 267.364 159.248C267.364 162.945 270.373 165.953 274.071 165.953C277.77 165.953 280.778 162.945 280.778 159.248C280.778 155.55 277.771 152.541 274.071 152.541ZM274.071 161.42C272.874 161.42 271.898 160.446 271.898 159.248C271.898 158.051 272.874 157.075 274.071 157.075C275.269 157.075 276.245 158.051 276.245 159.248C276.245 160.446 275.269 161.42 274.071 161.42Z" fill="#B6B6B6"/>
<path d="M260.471 130.649C257.2 130.649 254.539 133.31 254.539 136.582C254.539 139.854 257.2 142.514 260.471 142.514C263.743 142.514 266.404 139.854 266.404 136.582C266.404 133.31 263.743 130.649 260.471 130.649ZM260.471 137.981C259.701 137.981 259.072 137.352 259.072 136.582C259.072 135.811 259.701 135.183 260.471 135.183C261.242 135.183 261.871 135.811 261.871 136.582C261.871 137.352 261.242 137.981 260.471 137.981Z" fill="#B6B6B6"/>
<path d="M256.204 149.048C256.204 145.777 253.543 143.116 250.271 143.116C246.999 143.116 244.339 145.776 244.339 149.048C244.339 152.32 246.999 154.981 250.271 154.981C253.543 154.981 256.204 152.32 256.204 149.048ZM250.271 150.448C249.501 150.448 248.872 149.819 248.872 149.048C248.872 148.278 249.501 147.649 250.271 147.649C251.042 147.649 251.67 148.278 251.67 149.048C251.67 149.819 251.042 150.448 250.271 150.448Z" fill="#B6B6B6"/>
<path d="M258.205 157.849C254.934 157.849 252.272 160.51 252.272 163.782C252.272 167.053 254.933 169.714 258.205 169.714C261.477 169.714 264.137 167.053 264.137 163.782C264.137 160.51 261.477 157.849 258.205 157.849ZM258.205 165.181C257.435 165.181 256.806 164.552 256.806 163.782C256.806 163.011 257.434 162.382 258.205 162.382C258.976 162.382 259.604 163.011 259.604 163.782C259.604 164.552 258.976 165.181 258.205 165.181Z" fill="#B6B6B6"/>
<path d="M169.177 134.06C168.756 133.644 168.329 133.222 167.913 132.785C167.912 132.785 167.912 132.785 167.912 132.784C167.911 132.784 167.911 132.784 167.911 132.783C166.174 130.966 165.016 129.31 165.016 127.143C165.016 124.263 163.522 123.473 162.63 123.259C159.095 122.364 154.955 129.302 152.804 133.496C151.511 136.017 149.968 139.546 149.968 142.04C149.968 146.439 152.394 150.245 155.952 152.305L154.641 181.424C154.534 183.776 155.358 186.052 156.901 187.664C158.247 189.074 160.013 189.848 161.872 189.848C163.731 189.848 165.498 189.074 166.844 187.664C168.387 186.052 169.21 183.777 169.103 181.424L167.792 152.305C171.35 150.244 173.777 146.438 173.777 142.04C173.776 138.616 171.332 136.194 169.177 134.06ZM160.721 129.372C161.141 131.269 162.064 132.847 163.134 134.206C162.332 134.802 161.542 135.116 160.769 135.147C159.729 135.142 158.6 134.662 157.679 133.996C158.777 132.046 159.855 130.472 160.721 129.372ZM164.575 181.627C164.626 182.749 164.258 183.81 163.568 184.531C163.227 184.89 162.654 185.315 161.872 185.315C161.091 185.315 160.517 184.89 160.177 184.531C159.486 183.81 159.119 182.749 159.17 181.627L160.423 153.798C160.903 153.857 161.376 153.945 161.872 153.945C162.369 153.945 162.841 153.857 163.322 153.798L164.575 181.627ZM161.872 149.411C157.808 149.411 154.5 146.104 154.5 142.04C154.5 141.398 154.837 140.031 155.668 138.062C157.3 139.107 158.96 139.682 160.636 139.682C160.738 139.682 160.84 139.68 160.944 139.676C162.8 139.604 164.571 138.875 166.233 137.526C167.871 139.152 169.243 140.579 169.243 142.04C169.243 146.104 165.936 149.411 161.872 149.411Z" fill="#B6B6B6"/>
</svg>
