<svg width="40" height="40" viewBox="0 0 40 40" fill="none" xmlns="http://www.w3.org/2000/svg">
<path d="M38.875 20C38.875 30.4244 30.4244 38.875 20 38.875C9.57563 38.875 1.125 30.4244 1.125 20C1.125 9.57563 9.57563 1.125 20 1.125C30.4244 1.125 38.875 9.57563 38.875 20Z" stroke="#9643A4"/>
<path d="M20 38C29.9411 38 38 29.9411 38 20C38 10.0589 29.9411 2 20 2C10.0589 2 2 10.0589 2 20C2 29.9411 10.0589 38 20 38Z" fill="url(#paint0_linear_57972_2469)"/>
<path fill-rule="evenodd" clip-rule="evenodd" d="M10.148 20.8169L20.6453 15.7785C25.6441 13.4617 26.6828 13.0593 27.3598 13.046C27.5087 13.0431 27.8416 13.0842 28.0573 13.2792C28.2394 13.4439 28.2895 13.6663 28.3135 13.8224C28.3375 13.9784 28.3673 14.3341 28.3436 14.612C28.0727 17.7834 26.9006 25.4799 26.3043 29.032C26.0519 30.5351 25.5555 31.0391 25.0741 31.0884C24.0288 31.1956 23.2351 30.3186 22.2226 29.5791L18.2056 26.5724C16.4284 25.2675 17.5805 24.5503 18.5933 23.3781C18.8584 23.0712 23.464 18.4034 23.5531 17.9799C23.5639 17.927 23.5746 17.7296 23.4693 17.6253C23.3641 17.521 23.2087 17.5571 23.0966 17.5851C22.9378 17.6253 20.4069 19.4892 15.5041 23.177C14.7858 23.7267 14.1351 23.9946 13.5521 23.9805C12.9094 23.965 11.6731 23.5756 10.7541 23.2427C9.62682 22.8344 8.73089 22.6185 8.80894 21.9251C8.84955 21.564 9.29591 21.1946 10.148 20.817L10.148 20.8169Z" fill="white"/>
<defs>
<linearGradient id="paint0_linear_57972_2469" x1="20" y1="2" x2="20" y2="37.733" gradientUnits="userSpaceOnUse">
<stop stop-color="#2AABEE"/>
<stop offset="1" stop-color="#229ED9"/>
</linearGradient>
</defs>
</svg>
